<?xml version="1.0" encoding="UTF-8" standalone="no"?>
<!DOCTYPE svg PUBLIC "-//W3C//DTD SVG 1.1//EN"
 "http://www.w3.org/Graphics/SVG/1.1/DTD/svg11.dtd">
<!-- Generated by graphviz version 2.40.1 (20161225.0304)
 -->
<!-- Title: sample_slim Pages: 1 -->
<svg width="1164pt" height="646pt"
 viewBox="0.00 0.00 1163.50 646.00" xmlns="http://www.w3.org/2000/svg" xmlns:xlink="http://www.w3.org/1999/xlink">
<g id="graph0" class="graph" transform="scale(1 1) rotate(0) translate(4 642)">
<title>sample_slim</title>
<polygon fill="#ffffff" stroke="transparent" points="-4,4 -4,-642 1159.5,-642 1159.5,4 -4,4"/>
<!-- migration -->
<g id="node1" class="node">
<title>migration</title>
<polygon fill="#efefef" stroke="transparent" points="43.5,-484.5 43.5,-519.5 228.5,-519.5 228.5,-484.5 43.5,-484.5"/>
<polygon fill="none" stroke="#000000" points="43.5,-484.5 43.5,-519.5 228.5,-519.5 228.5,-484.5 43.5,-484.5"/>
<text text-anchor="start" x="50.3732" y="-497.3" font-family="Arial Bold" font-size="18.00" fill="#000000">migration</text>
<text text-anchor="start" x="124.373" y="-497.3" font-family="Arial" font-size="14.00" fill="#000000"> </text>
<text text-anchor="start" x="128.2636" y="-497.3" font-family="Arial" font-size="14.00" fill="#666666">[BASE TABLE]</text>
<polygon fill="none" stroke="#000000" points="43.5,-454.5 43.5,-484.5 228.5,-484.5 228.5,-454.5 43.5,-454.5"/>
<text text-anchor="start" x="50.5" y="-465.9" font-family="Arial" font-size="14.00" fill="#000000">version </text>
<text text-anchor="start" x="99.5056" y="-465.9" font-family="Arial" font-size="14.00" fill="#666666">[varchar(255)]</text>
</g>
<!-- migration_seed -->
<g id="node2" class="node">
<title>migration_seed</title>
<polygon fill="#efefef" stroke="transparent" points="332.5,-484.5 332.5,-519.5 566.5,-519.5 566.5,-484.5 332.5,-484.5"/>
<polygon fill="none" stroke="#000000" points="332.5,-484.5 332.5,-519.5 566.5,-519.5 566.5,-484.5 332.5,-484.5"/>
<text text-anchor="start" x="339.3608" y="-497.3" font-family="Arial Bold" font-size="18.00" fill="#000000">migration_seed</text>
<text text-anchor="start" x="462.3854" y="-497.3" font-family="Arial" font-size="14.00" fill="#000000"> </text>
<text text-anchor="start" x="466.276" y="-497.3" font-family="Arial" font-size="14.00" fill="#666666">[BASE TABLE]</text>
<polygon fill="none" stroke="#000000" points="332.5,-454.5 332.5,-484.5 566.5,-484.5 566.5,-454.5 332.5,-454.5"/>
<text text-anchor="start" x="339.5" y="-465.9" font-family="Arial" font-size="14.00" fill="#000000">version </text>
<text text-anchor="start" x="388.5056" y="-465.9" font-family="Arial" font-size="14.00" fill="#666666">[varchar(255)]</text>
</g>
<!-- site -->
<g id="node3" class="node">
<title>site</title>
<polygon fill="#efefef" stroke="transparent" points="555.5,-222.5 555.5,-257.5 704.5,-257.5 704.5,-222.5 555.5,-222.5"/>
<polygon fill="none" stroke="#000000" points="555.5,-222.5 555.5,-257.5 704.5,-257.5 704.5,-222.5 555.5,-222.5"/>
<text text-anchor="start" x="567.3718" y="-235.3" font-family="Arial Bold" font-size="18.00" fill="#000000">site</text>
<text text-anchor="start" x="595.3744" y="-235.3" font-family="Arial" font-size="14.00" fill="#000000"> </text>
<text text-anchor="start" x="599.265" y="-235.3" font-family="Arial" font-size="14.00" fill="#666666">[BASE TABLE]</text>
<polygon fill="none" stroke="#000000" points="555.5,-192.5 555.5,-222.5 704.5,-222.5 704.5,-192.5 555.5,-192.5"/>
<text text-anchor="start" x="562.5" y="-203.9" font-family="Arial" font-size="14.00" fill="#000000">id </text>
<text text-anchor="start" x="577.2798" y="-203.9" font-family="Arial" font-size="14.00" fill="#666666">[int]</text>
<polygon fill="none" stroke="#000000" points="555.5,-162.5 555.5,-192.5 704.5,-192.5 704.5,-162.5 555.5,-162.5"/>
<text text-anchor="start" x="562.5" y="-173.9" font-family="Arial" font-size="14.00" fill="#000000">name </text>
<text text-anchor="start" x="601.399" y="-173.9" font-family="Arial" font-size="14.00" fill="#666666">[varchar(256)]</text>
<polygon fill="none" stroke="#000000" points="555.5,-132.5 555.5,-162.5 704.5,-162.5 704.5,-132.5 555.5,-132.5"/>
<text text-anchor="start" x="562.5" y="-143.9" font-family="Arial" font-size="14.00" fill="#000000">url </text>
<text text-anchor="start" x="581.9404" y="-143.9" font-family="Arial" font-size="14.00" fill="#666666">[varchar(256)]</text>
<polygon fill="none" stroke="#000000" points="555.5,-102.5 555.5,-132.5 704.5,-132.5 704.5,-102.5 555.5,-102.5"/>
<text text-anchor="start" x="562.5" y="-113.9" font-family="Arial" font-size="14.00" fill="#000000">del_flg </text>
<text text-anchor="start" x="607.6248" y="-113.9" font-family="Arial" font-size="14.00" fill="#666666">[tinyint]</text>
<polygon fill="none" stroke="#000000" points="555.5,-72.5 555.5,-102.5 704.5,-102.5 704.5,-72.5 555.5,-72.5"/>
<text text-anchor="start" x="562.5" y="-83.9" font-family="Arial" font-size="14.00" fill="#000000">created_at </text>
<text text-anchor="start" x="632.528" y="-83.9" font-family="Arial" font-size="14.00" fill="#666666">[datetime]</text>
<polygon fill="none" stroke="#000000" points="555.5,-42.5 555.5,-72.5 704.5,-72.5 704.5,-42.5 555.5,-42.5"/>
<text text-anchor="start" x="562.3037" y="-53.9" font-family="Arial" font-size="14.00" fill="#000000">updated_at </text>
<text text-anchor="start" x="636.2363" y="-53.9" font-family="Arial" font-size="14.00" fill="#666666">[datetime]</text>
</g>
<!-- tag -->
<g id="node4" class="node">
<title>tag</title>
<polygon fill="#efefef" stroke="transparent" points="808.5,-192.5 808.5,-227.5 957.5,-227.5 957.5,-192.5 808.5,-192.5"/>
<polygon fill="none" stroke="#000000" points="808.5,-192.5 808.5,-227.5 957.5,-227.5 957.5,-192.5 808.5,-192.5"/>
<text text-anchor="start" x="821.8658" y="-205.3" font-family="Arial Bold" font-size="18.00" fill="#000000">tag</text>
<text text-anchor="start" x="846.8804" y="-205.3" font-family="Arial" font-size="14.00" fill="#000000"> </text>
<text text-anchor="start" x="850.771" y="-205.3" font-family="Arial" font-size="14.00" fill="#666666">[BASE TABLE]</text>
<polygon fill="none" stroke="#000000" points="808.5,-162.5 808.5,-192.5 957.5,-192.5 957.5,-162.5 808.5,-162.5"/>
<text text-anchor="start" x="815.5" y="-173.9" font-family="Arial" font-size="14.00" fill="#000000">id </text>
<text text-anchor="start" x="830.2798" y="-173.9" font-family="Arial" font-size="14.00" fill="#666666">[int]</text>
<polygon fill="none" stroke="#000000" points="808.5,-132.5 808.5,-162.5 957.5,-162.5 957.5,-132.5 808.5,-132.5"/>
<text text-anchor="start" x="815.5" y="-143.9" font-family="Arial" font-size="14.00" fill="#000000">name </text>
<text text-anchor="start" x="854.399" y="-143.9" font-family="Arial" font-size="14.00" fill="#666666">[varchar(64)]</text>
<polygon fill="none" stroke="#000000" points="808.5,-102.5 808.5,-132.5 957.5,-132.5 957.5,-102.5 808.5,-102.5"/>
<text text-anchor="start" x="815.5" y="-113.9" font-family="Arial" font-size="14.00" fill="#000000">created_at </text>
<text text-anchor="start" x="885.528" y="-113.9" font-family="Arial" font-size="14.00" fill="#666666">[datetime]</text>
<polygon fill="none" stroke="#000000" points="808.5,-72.5 808.5,-102.5 957.5,-102.5 957.5,-72.5 808.5,-72.5"/>
<text text-anchor="start" x="815.3037" y="-83.9" font-family="Arial" font-size="14.00" fill="#000000">updated_at </text>
<text text-anchor="start" x="889.2363" y="-83.9" font-family="Arial" font-size="14.00" fill="#666666">[datetime]</text>
</g>
<!-- tag_site -->
<g id="node5" class="node">
<title>tag_site</title>
<polygon fill="#efefef" stroke="transparent" points="670.5,-514.5 670.5,-549.5 844.5,-549.5 844.5,-514.5 670.5,-514.5"/>
<polygon fill="none" stroke="#000000" points="670.5,-514.5 670.5,-549.5 844.5,-549.5 844.5,-514.5 670.5,-514.5"/>
<text text-anchor="start" x="677.3614" y="-527.3" font-family="Arial Bold" font-size="18.00" fill="#000000">tag_site</text>
<text text-anchor="start" x="740.3848" y="-527.3" font-family="Arial" font-size="14.00" fill="#000000"> </text>
<text text-anchor="start" x="744.2754" y="-527.3" font-family="Arial" font-size="14.00" fill="#666666">[BASE TABLE]</text>
<polygon fill="none" stroke="#000000" points="670.5,-484.5 670.5,-514.5 844.5,-514.5 844.5,-484.5 670.5,-484.5"/>
<text text-anchor="start" x="677.5" y="-495.9" font-family="Arial" font-size="14.00" fill="#000000">tag_id </text>
<text text-anchor="start" x="719.5182" y="-495.9" font-family="Arial" font-size="14.00" fill="#666666">[int]</text>
<polygon fill="none" stroke="#000000" points="670.5,-454.5 670.5,-484.5 844.5,-484.5 844.5,-454.5 670.5,-454.5"/>
<text text-anchor="start" x="677.5" y="-465.9" font-family="Arial" font-size="14.00" fill="#000000">site_id </text>
<text text-anchor="start" x="721.8422" y="-465.9" font-family="Arial" font-size="14.00" fill="#666666">[int]</text>
<polygon fill="none" stroke="#000000" points="670.5,-424.5 670.5,-454.5 844.5,-454.5 844.5,-424.5 670.5,-424.5"/>
<text text-anchor="start" x="677.5" y="-435.9" font-family="Arial" font-size="14.00" fill="#000000">created_at </text>
<text text-anchor="start" x="747.528" y="-435.9" font-family="Arial" font-size="14.00" fill="#666666">[datetime]</text>
</g>
<!-- tag_site&#45;&gt;site -->
<g id="edge2" class="edge">
<title>tag_site:site_id&#45;&gt;site:id</title>
<path fill="none" stroke="#000000" d="M660.3254,-468.7012C570.0057,-452.8854 818.1368,-207.5 704.5,-207.5"/>
<polygon fill="#000000" stroke="#000000" points="660.5307,-468.7173 670.1478,-473.9862 665.5153,-469.1086 670.5,-469.5 670.5,-469.5 670.5,-469.5 665.5153,-469.1086 670.8522,-465.0138 660.5307,-468.7173 660.5307,-468.7173"/>
<text text-anchor="start" x="621.085" y="-453.5" font-family="Arial" font-size="10.00" fill="#000000">FOREIGN KEY (site_id) REFERENCES site (id)</text>
</g>
<!-- tag_site&#45;&gt;tag -->
<g id="edge1" class="edge">
<title>tag_site:tag_id&#45;&gt;tag:id</title>
<path fill="none" stroke="#000000" d="M854.5791,-498.8878C972.3511,-483.356 668.1536,-177.5 808.5,-177.5"/>
<polygon fill="#000000" stroke="#000000" points="854.4816,-498.8936 844.2271,-495.0083 849.4908,-499.1968 844.5,-499.5 844.5,-499.5 844.5,-499.5 849.4908,-499.1968 844.7729,-503.9917 854.4816,-498.8936 854.4816,-498.8936"/>
<text text-anchor="start" x="739.495" y="-483.5" font-family="Arial" font-size="10.00" fill="#000000">FOREIGN KEY (tag_id) REFERENCES tag (id)</text>
</g>
<!-- user -->
<g id="node6" class="node">
<title>user</title>
<polygon fill="#efefef" stroke="transparent" points="948.5,-559.5 948.5,-594.5 1112.5,-594.5 1112.5,-559.5 948.5,-559.5"/>
<polygon fill="none" stroke="#000000" points="948.5,-559.5 948.5,-594.5 1112.5,-594.5 1112.5,-559.5 948.5,-559.5"/>
<text text-anchor="start" x="964.3708" y="-572.3" font-family="Arial Bold" font-size="18.00" fill="#000000">user</text>
<text text-anchor="start" x="999.3754" y="-572.3" font-family="Arial" font-size="14.00" fill="#000000"> </text>
<text text-anchor="start" x="1003.266" y="-572.3" font-family="Arial" font-size="14.00" fill="#666666">[BASE TABLE]</text>
<polygon fill="none" stroke="#000000" points="948.5,-529.5 948.5,-559.5 1112.5,-559.5 1112.5,-529.5 948.5,-529.5"/>
<text text-anchor="start" x="955.5" y="-540.9" font-family="Arial" font-size="14.00" fill="#000000">id </text>
<text text-anchor="start" x="970.2798" y="-540.9" font-family="Arial" font-size="14.00" fill="#666666">[int]</text>
<polygon fill="none" stroke="#000000" points="948.5,-499.5 948.5,-529.5 1112.5,-529.5 1112.5,-499.5 948.5,-499.5"/>
<text text-anchor="start" x="955.5" y="-510.9" font-family="Arial" font-size="14.00" fill="#000000">login_id </text>
<text text-anchor="start" x="1007.6234" y="-510.9" font-family="Arial" font-size="14.00" fill="#666666">[varchar(32)]</text>
<polygon fill="none" stroke="#000000" points="948.5,-469.5 948.5,-499.5 1112.5,-499.5 1112.5,-469.5 948.5,-469.5"/>
<text text-anchor="start" x="955.0463" y="-480.9" font-family="Arial" font-size="14.00" fill="#000000">password </text>
<text text-anchor="start" x="1018.8345" y="-480.9" font-family="Arial" font-size="14.00" fill="#666666">[varchar(256)]</text>
<polygon fill="none" stroke="#000000" points="948.5,-439.5 948.5,-469.5 1112.5,-469.5 1112.5,-439.5 948.5,-439.5"/>
<text text-anchor="start" x="955.5" y="-450.9" font-family="Arial" font-size="14.00" fill="#000000">del_flg </text>
<text text-anchor="start" x="1000.6248" y="-450.9" font-family="Arial" font-size="14.00" fill="#666666">[tinyint]</text>
<polygon fill="none" stroke="#000000" points="948.5,-409.5 948.5,-439.5 1112.5,-439.5 1112.5,-409.5 948.5,-409.5"/>
<text text-anchor="start" x="955.5" y="-420.9" font-family="Arial" font-size="14.00" fill="#000000">created_at </text>
<text text-anchor="start" x="1025.528" y="-420.9" font-family="Arial" font-size="14.00" fill="#666666">[datetime]</text>
<polygon fill="none" stroke="#000000" points="948.5,-379.5 948.5,-409.5 1112.5,-409.5 1112.5,-379.5 948.5,-379.5"/>
<text text-anchor="start" x="955.5" y="-390.9" font-family="Arial" font-size="14.00" fill="#000000">updated_at </text>
<text text-anchor="start" x="1029.4326" y="-390.9" font-family="Arial" font-size="14.00" fill="#666666">[datetime]</text>
</g>
</g>
</svg>
