<?xml version="1.0" encoding="UTF-8" standalone="no"?>
<!DOCTYPE svg PUBLIC "-//W3C//DTD SVG 1.1//EN"
 "http://www.w3.org/Graphics/SVG/1.1/DTD/svg11.dtd">
<!-- Generated by graphviz version 2.40.1 (20161225.0304)
 -->
<!-- Title: site Pages: 1 -->
<svg width="452pt" height="562pt"
 viewBox="0.00 0.00 452.00 562.00" xmlns="http://www.w3.org/2000/svg" xmlns:xlink="http://www.w3.org/1999/xlink">
<g id="graph0" class="graph" transform="scale(1 1) rotate(0) translate(4 558)">
<title>site</title>
<polygon fill="#ffffff" stroke="transparent" points="-4,4 -4,-558 448,-558 448,4 -4,4"/>
<!-- site -->
<g id="node1" class="node">
<title>site</title>
<polygon fill="#efefef" stroke="transparent" points="239,-225.5 239,-260.5 388,-260.5 388,-225.5 239,-225.5"/>
<polygon fill="none" stroke="#000000" points="239,-225.5 239,-260.5 388,-260.5 388,-225.5 239,-225.5"/>
<text text-anchor="start" x="250.8718" y="-238.3" font-family="Arial Bold" font-size="18.00" fill="#000000">site</text>
<text text-anchor="start" x="278.8744" y="-238.3" font-family="Arial" font-size="14.00" fill="#000000"> </text>
<text text-anchor="start" x="282.765" y="-238.3" font-family="Arial" font-size="14.00" fill="#666666">[BASE TABLE]</text>
<polygon fill="none" stroke="#000000" points="239,-195.5 239,-225.5 388,-225.5 388,-195.5 239,-195.5"/>
<text text-anchor="start" x="246" y="-206.9" font-family="Arial" font-size="14.00" fill="#000000">id </text>
<text text-anchor="start" x="260.7798" y="-206.9" font-family="Arial" font-size="14.00" fill="#666666">[int]</text>
<polygon fill="none" stroke="#000000" points="239,-165.5 239,-195.5 388,-195.5 388,-165.5 239,-165.5"/>
<text text-anchor="start" x="246" y="-176.9" font-family="Arial" font-size="14.00" fill="#000000">name </text>
<text text-anchor="start" x="284.899" y="-176.9" font-family="Arial" font-size="14.00" fill="#666666">[varchar(256)]</text>
<polygon fill="none" stroke="#000000" points="239,-135.5 239,-165.5 388,-165.5 388,-135.5 239,-135.5"/>
<text text-anchor="start" x="246" y="-146.9" font-family="Arial" font-size="14.00" fill="#000000">url </text>
<text text-anchor="start" x="265.4404" y="-146.9" font-family="Arial" font-size="14.00" fill="#666666">[varchar(256)]</text>
<polygon fill="none" stroke="#000000" points="239,-105.5 239,-135.5 388,-135.5 388,-105.5 239,-105.5"/>
<text text-anchor="start" x="246" y="-116.9" font-family="Arial" font-size="14.00" fill="#000000">del_flg </text>
<text text-anchor="start" x="291.1248" y="-116.9" font-family="Arial" font-size="14.00" fill="#666666">[tinyint]</text>
<polygon fill="none" stroke="#000000" points="239,-75.5 239,-105.5 388,-105.5 388,-75.5 239,-75.5"/>
<text text-anchor="start" x="246" y="-86.9" font-family="Arial" font-size="14.00" fill="#000000">created_at </text>
<text text-anchor="start" x="316.028" y="-86.9" font-family="Arial" font-size="14.00" fill="#666666">[datetime]</text>
<polygon fill="none" stroke="#000000" points="239,-45.5 239,-75.5 388,-75.5 388,-45.5 239,-45.5"/>
<text text-anchor="start" x="245.8037" y="-56.9" font-family="Arial" font-size="14.00" fill="#000000">updated_at </text>
<text text-anchor="start" x="319.7363" y="-56.9" font-family="Arial" font-size="14.00" fill="#666666">[datetime]</text>
<polygon fill="none" stroke="#000000" stroke-width="3" points="237,-44.5 237,-262.5 389,-262.5 389,-44.5 237,-44.5"/>
</g>
<!-- tag_site -->
<g id="node2" class="node">
<title>tag_site</title>
<polygon fill="#efefef" stroke="transparent" points="227,-475.5 227,-510.5 401,-510.5 401,-475.5 227,-475.5"/>
<polygon fill="none" stroke="#000000" points="227,-475.5 227,-510.5 401,-510.5 401,-475.5 227,-475.5"/>
<text text-anchor="start" x="233.8614" y="-488.3" font-family="Arial Bold" font-size="18.00" fill="#000000">tag_site</text>
<text text-anchor="start" x="296.8848" y="-488.3" font-family="Arial" font-size="14.00" fill="#000000"> </text>
<text text-anchor="start" x="300.7754" y="-488.3" font-family="Arial" font-size="14.00" fill="#666666">[BASE TABLE]</text>
<polygon fill="none" stroke="#000000" points="227,-445.5 227,-475.5 401,-475.5 401,-445.5 227,-445.5"/>
<text text-anchor="start" x="234" y="-456.9" font-family="Arial" font-size="14.00" fill="#000000">tag_id </text>
<text text-anchor="start" x="276.0182" y="-456.9" font-family="Arial" font-size="14.00" fill="#666666">[int]</text>
<polygon fill="none" stroke="#000000" points="227,-415.5 227,-445.5 401,-445.5 401,-415.5 227,-415.5"/>
<text text-anchor="start" x="234" y="-426.9" font-family="Arial" font-size="14.00" fill="#000000">site_id </text>
<text text-anchor="start" x="278.3422" y="-426.9" font-family="Arial" font-size="14.00" fill="#666666">[int]</text>
<polygon fill="none" stroke="#000000" points="227,-385.5 227,-415.5 401,-415.5 401,-385.5 227,-385.5"/>
<text text-anchor="start" x="234" y="-396.9" font-family="Arial" font-size="14.00" fill="#000000">created_at </text>
<text text-anchor="start" x="304.028" y="-396.9" font-family="Arial" font-size="14.00" fill="#666666">[datetime]</text>
</g>
<!-- tag_site&#45;&gt;site -->
<g id="edge1" class="edge">
<title>tag_site:site_id&#45;&gt;site:id</title>
<path fill="none" stroke="#000000" d="M217.0957,-428.9431C191.0507,-419.5936 205.0605,-370.387 227,-343 272.8423,-285.7752 342.1577,-364.2248 388,-307 414.8148,-273.5272 430.8889,-210.5 388,-210.5"/>
<polygon fill="#000000" stroke="#000000" points="217.1213,-428.9471 226.3012,-434.9454 222.0606,-429.7235 227,-430.5 227,-430.5 227,-430.5 222.0606,-429.7235 227.6988,-426.0546 217.1213,-428.9471 217.1213,-428.9471"/>
<text text-anchor="start" x="7.335" y="-440.5" font-family="Arial" font-size="10.00" fill="#000000">FOREIGN KEY (site_id) REFERENCES site (id)</text>
</g>
</g>
</svg>
