<?xml version="1.0" encoding="UTF-8" standalone="no"?>
<!DOCTYPE svg PUBLIC "-//W3C//DTD SVG 1.1//EN"
 "http://www.w3.org/Graphics/SVG/1.1/DTD/svg11.dtd">
<!-- Generated by graphviz version 2.40.1 (20161225.0304)
 -->
<!-- Title: tag Pages: 1 -->
<svg width="449pt" height="502pt"
 viewBox="0.00 0.00 449.00 502.00" xmlns="http://www.w3.org/2000/svg" xmlns:xlink="http://www.w3.org/1999/xlink">
<g id="graph0" class="graph" transform="scale(1 1) rotate(0) translate(4 498)">
<title>tag</title>
<polygon fill="#ffffff" stroke="transparent" points="-4,4 -4,-498 445,-498 445,4 -4,4"/>
<!-- tag -->
<g id="node1" class="node">
<title>tag</title>
<polygon fill="#efefef" stroke="transparent" points="236,-165.5 236,-200.5 385,-200.5 385,-165.5 236,-165.5"/>
<polygon fill="none" stroke="#000000" points="236,-165.5 236,-200.5 385,-200.5 385,-165.5 236,-165.5"/>
<text text-anchor="start" x="249.3658" y="-178.3" font-family="Arial Bold" font-size="18.00" fill="#000000">tag</text>
<text text-anchor="start" x="274.3804" y="-178.3" font-family="Arial" font-size="14.00" fill="#000000"> </text>
<text text-anchor="start" x="278.271" y="-178.3" font-family="Arial" font-size="14.00" fill="#666666">[BASE TABLE]</text>
<polygon fill="none" stroke="#000000" points="236,-135.5 236,-165.5 385,-165.5 385,-135.5 236,-135.5"/>
<text text-anchor="start" x="243" y="-146.9" font-family="Arial" font-size="14.00" fill="#000000">id </text>
<text text-anchor="start" x="257.7798" y="-146.9" font-family="Arial" font-size="14.00" fill="#666666">[int]</text>
<polygon fill="none" stroke="#000000" points="236,-105.5 236,-135.5 385,-135.5 385,-105.5 236,-105.5"/>
<text text-anchor="start" x="243" y="-116.9" font-family="Arial" font-size="14.00" fill="#000000">name </text>
<text text-anchor="start" x="281.899" y="-116.9" font-family="Arial" font-size="14.00" fill="#666666">[varchar(64)]</text>
<polygon fill="none" stroke="#000000" points="236,-75.5 236,-105.5 385,-105.5 385,-75.5 236,-75.5"/>
<text text-anchor="start" x="243" y="-86.9" font-family="Arial" font-size="14.00" fill="#000000">created_at </text>
<text text-anchor="start" x="313.028" y="-86.9" font-family="Arial" font-size="14.00" fill="#666666">[datetime]</text>
<polygon fill="none" stroke="#000000" points="236,-45.5 236,-75.5 385,-75.5 385,-45.5 236,-45.5"/>
<text text-anchor="start" x="242.8037" y="-56.9" font-family="Arial" font-size="14.00" fill="#000000">updated_at </text>
<text text-anchor="start" x="316.7363" y="-56.9" font-family="Arial" font-size="14.00" fill="#666666">[datetime]</text>
<polygon fill="none" stroke="#000000" stroke-width="3" points="234,-44.5 234,-202.5 386,-202.5 386,-44.5 234,-44.5"/>
</g>
<!-- tag_site -->
<g id="node2" class="node">
<title>tag_site</title>
<polygon fill="#efefef" stroke="transparent" points="224,-415.5 224,-450.5 398,-450.5 398,-415.5 224,-415.5"/>
<polygon fill="none" stroke="#000000" points="224,-415.5 224,-450.5 398,-450.5 398,-415.5 224,-415.5"/>
<text text-anchor="start" x="230.8614" y="-428.3" font-family="Arial Bold" font-size="18.00" fill="#000000">tag_site</text>
<text text-anchor="start" x="293.8848" y="-428.3" font-family="Arial" font-size="14.00" fill="#000000"> </text>
<text text-anchor="start" x="297.7754" y="-428.3" font-family="Arial" font-size="14.00" fill="#666666">[BASE TABLE]</text>
<polygon fill="none" stroke="#000000" points="224,-385.5 224,-415.5 398,-415.5 398,-385.5 224,-385.5"/>
<text text-anchor="start" x="231" y="-396.9" font-family="Arial" font-size="14.00" fill="#000000">tag_id </text>
<text text-anchor="start" x="273.0182" y="-396.9" font-family="Arial" font-size="14.00" fill="#666666">[int]</text>
<polygon fill="none" stroke="#000000" points="224,-355.5 224,-385.5 398,-385.5 398,-355.5 224,-355.5"/>
<text text-anchor="start" x="231" y="-366.9" font-family="Arial" font-size="14.00" fill="#000000">site_id </text>
<text text-anchor="start" x="275.3422" y="-366.9" font-family="Arial" font-size="14.00" fill="#666666">[int]</text>
<polygon fill="none" stroke="#000000" points="224,-325.5 224,-355.5 398,-355.5 398,-325.5 224,-325.5"/>
<text text-anchor="start" x="231" y="-336.9" font-family="Arial" font-size="14.00" fill="#000000">created_at </text>
<text text-anchor="start" x="301.028" y="-336.9" font-family="Arial" font-size="14.00" fill="#666666">[datetime]</text>
</g>
<!-- tag_site&#45;&gt;tag -->
<g id="edge1" class="edge">
<title>tag_site:tag_id&#45;&gt;tag:id</title>
<path fill="none" stroke="#000000" d="M214.0288,-399.401C174.5948,-389.8859 193.6456,-320.8913 224,-283 269.8423,-225.7752 339.1577,-304.2248 385,-247 411.8148,-213.5272 427.8889,-150.5 385,-150.5"/>
<polygon fill="#000000" stroke="#000000" points="214.0602,-399.4043 223.507,-404.9729 219.0301,-399.9522 224,-400.5 224,-400.5 224,-400.5 219.0301,-399.9522 224.493,-396.0271 214.0602,-399.4043 214.0602,-399.4043"/>
<text text-anchor="start" x="6.995" y="-410.5" font-family="Arial" font-size="10.00" fill="#000000">FOREIGN KEY (tag_id) REFERENCES tag (id)</text>
</g>
</g>
</svg>
