<?xml version="1.0" encoding="UTF-8" standalone="no"?>
<!DOCTYPE svg PUBLIC "-//W3C//DTD SVG 1.1//EN"
 "http://www.w3.org/Graphics/SVG/1.1/DTD/svg11.dtd">
<!-- Generated by graphviz version 2.40.1 (20161225.0304)
 -->
<!-- Title: tag_site Pages: 1 -->
<svg width="633pt" height="562pt"
 viewBox="0.00 0.00 633.00 562.00" xmlns="http://www.w3.org/2000/svg" xmlns:xlink="http://www.w3.org/1999/xlink">
<g id="graph0" class="graph" transform="scale(1 1) rotate(0) translate(4 558)">
<title>tag_site</title>
<polygon fill="#ffffff" stroke="transparent" points="-4,4 -4,-558 629,-558 629,4 -4,4"/>
<!-- tag_site -->
<g id="node1" class="node">
<title>tag_site</title>
<polygon fill="#efefef" stroke="transparent" points="224,-472.5 224,-507.5 398,-507.5 398,-472.5 224,-472.5"/>
<polygon fill="none" stroke="#000000" points="224,-472.5 224,-507.5 398,-507.5 398,-472.5 224,-472.5"/>
<text text-anchor="start" x="230.8614" y="-485.3" font-family="Arial Bold" font-size="18.00" fill="#000000">tag_site</text>
<text text-anchor="start" x="293.8848" y="-485.3" font-family="Arial" font-size="14.00" fill="#000000"> </text>
<text text-anchor="start" x="297.7754" y="-485.3" font-family="Arial" font-size="14.00" fill="#666666">[BASE TABLE]</text>
<polygon fill="none" stroke="#000000" points="224,-442.5 224,-472.5 398,-472.5 398,-442.5 224,-442.5"/>
<text text-anchor="start" x="231" y="-453.9" font-family="Arial" font-size="14.00" fill="#000000">tag_id </text>
<text text-anchor="start" x="273.0182" y="-453.9" font-family="Arial" font-size="14.00" fill="#666666">[int]</text>
<polygon fill="none" stroke="#000000" points="224,-412.5 224,-442.5 398,-442.5 398,-412.5 224,-412.5"/>
<text text-anchor="start" x="231" y="-423.9" font-family="Arial" font-size="14.00" fill="#000000">site_id </text>
<text text-anchor="start" x="275.3422" y="-423.9" font-family="Arial" font-size="14.00" fill="#666666">[int]</text>
<polygon fill="none" stroke="#000000" points="224,-382.5 224,-412.5 398,-412.5 398,-382.5 224,-382.5"/>
<text text-anchor="start" x="231" y="-393.9" font-family="Arial" font-size="14.00" fill="#000000">created_at </text>
<text text-anchor="start" x="301.028" y="-393.9" font-family="Arial" font-size="14.00" fill="#666666">[datetime]</text>
<polygon fill="none" stroke="#000000" stroke-width="3" points="222.5,-381.5 222.5,-509.5 399.5,-509.5 399.5,-381.5 222.5,-381.5"/>
</g>
<!-- tag -->
<g id="node2" class="node">
<title>tag</title>
<polygon fill="#efefef" stroke="transparent" points="110,-192.5 110,-227.5 259,-227.5 259,-192.5 110,-192.5"/>
<polygon fill="none" stroke="#000000" points="110,-192.5 110,-227.5 259,-227.5 259,-192.5 110,-192.5"/>
<text text-anchor="start" x="123.3658" y="-205.3" font-family="Arial Bold" font-size="18.00" fill="#000000">tag</text>
<text text-anchor="start" x="148.3804" y="-205.3" font-family="Arial" font-size="14.00" fill="#000000"> </text>
<text text-anchor="start" x="152.271" y="-205.3" font-family="Arial" font-size="14.00" fill="#666666">[BASE TABLE]</text>
<polygon fill="none" stroke="#000000" points="110,-162.5 110,-192.5 259,-192.5 259,-162.5 110,-162.5"/>
<text text-anchor="start" x="117" y="-173.9" font-family="Arial" font-size="14.00" fill="#000000">id </text>
<text text-anchor="start" x="131.7798" y="-173.9" font-family="Arial" font-size="14.00" fill="#666666">[int]</text>
<polygon fill="none" stroke="#000000" points="110,-132.5 110,-162.5 259,-162.5 259,-132.5 110,-132.5"/>
<text text-anchor="start" x="117" y="-143.9" font-family="Arial" font-size="14.00" fill="#000000">name </text>
<text text-anchor="start" x="155.899" y="-143.9" font-family="Arial" font-size="14.00" fill="#666666">[varchar(64)]</text>
<polygon fill="none" stroke="#000000" points="110,-102.5 110,-132.5 259,-132.5 259,-102.5 110,-102.5"/>
<text text-anchor="start" x="117" y="-113.9" font-family="Arial" font-size="14.00" fill="#000000">created_at </text>
<text text-anchor="start" x="187.028" y="-113.9" font-family="Arial" font-size="14.00" fill="#666666">[datetime]</text>
<polygon fill="none" stroke="#000000" points="110,-72.5 110,-102.5 259,-102.5 259,-72.5 110,-72.5"/>
<text text-anchor="start" x="116.8037" y="-83.9" font-family="Arial" font-size="14.00" fill="#000000">updated_at </text>
<text text-anchor="start" x="190.7363" y="-83.9" font-family="Arial" font-size="14.00" fill="#666666">[datetime]</text>
</g>
<!-- tag_site&#45;&gt;tag -->
<g id="edge1" class="edge">
<title>tag_site:tag_id&#45;&gt;tag:id</title>
<path fill="none" stroke="#000000" d="M213.5821,-456.4023C176.3225,-447.419 212.0317,-385.1145 224,-337 232.0148,-304.7792 250.9852,-303.2208 259,-271 269.0311,-230.6733 300.5556,-177.5 259,-177.5"/>
<polygon fill="#000000" stroke="#000000" points="214.055,-456.4521 223.5284,-461.9752 219.0275,-456.976 224,-457.5 224,-457.5 224,-457.5 219.0275,-456.976 224.4716,-453.0248 214.055,-456.4521 214.055,-456.4521"/>
<text text-anchor="start" x="6.995" y="-467.5" font-family="Arial" font-size="10.00" fill="#000000">FOREIGN KEY (tag_id) REFERENCES tag (id)</text>
</g>
<!-- site -->
<g id="node3" class="node">
<title>site</title>
<polygon fill="#efefef" stroke="transparent" points="363,-222.5 363,-257.5 512,-257.5 512,-222.5 363,-222.5"/>
<polygon fill="none" stroke="#000000" points="363,-222.5 363,-257.5 512,-257.5 512,-222.5 363,-222.5"/>
<text text-anchor="start" x="374.8718" y="-235.3" font-family="Arial Bold" font-size="18.00" fill="#000000">site</text>
<text text-anchor="start" x="402.8744" y="-235.3" font-family="Arial" font-size="14.00" fill="#000000"> </text>
<text text-anchor="start" x="406.765" y="-235.3" font-family="Arial" font-size="14.00" fill="#666666">[BASE TABLE]</text>
<polygon fill="none" stroke="#000000" points="363,-192.5 363,-222.5 512,-222.5 512,-192.5 363,-192.5"/>
<text text-anchor="start" x="370" y="-203.9" font-family="Arial" font-size="14.00" fill="#000000">id </text>
<text text-anchor="start" x="384.7798" y="-203.9" font-family="Arial" font-size="14.00" fill="#666666">[int]</text>
<polygon fill="none" stroke="#000000" points="363,-162.5 363,-192.5 512,-192.5 512,-162.5 363,-162.5"/>
<text text-anchor="start" x="370" y="-173.9" font-family="Arial" font-size="14.00" fill="#000000">name </text>
<text text-anchor="start" x="408.899" y="-173.9" font-family="Arial" font-size="14.00" fill="#666666">[varchar(256)]</text>
<polygon fill="none" stroke="#000000" points="363,-132.5 363,-162.5 512,-162.5 512,-132.5 363,-132.5"/>
<text text-anchor="start" x="370" y="-143.9" font-family="Arial" font-size="14.00" fill="#000000">url </text>
<text text-anchor="start" x="389.4404" y="-143.9" font-family="Arial" font-size="14.00" fill="#666666">[varchar(256)]</text>
<polygon fill="none" stroke="#000000" points="363,-102.5 363,-132.5 512,-132.5 512,-102.5 363,-102.5"/>
<text text-anchor="start" x="370" y="-113.9" font-family="Arial" font-size="14.00" fill="#000000">del_flg </text>
<text text-anchor="start" x="415.1248" y="-113.9" font-family="Arial" font-size="14.00" fill="#666666">[tinyint]</text>
<polygon fill="none" stroke="#000000" points="363,-72.5 363,-102.5 512,-102.5 512,-72.5 363,-72.5"/>
<text text-anchor="start" x="370" y="-83.9" font-family="Arial" font-size="14.00" fill="#000000">created_at </text>
<text text-anchor="start" x="440.028" y="-83.9" font-family="Arial" font-size="14.00" fill="#666666">[datetime]</text>
<polygon fill="none" stroke="#000000" points="363,-42.5 363,-72.5 512,-72.5 512,-42.5 363,-42.5"/>
<text text-anchor="start" x="369.8037" y="-53.9" font-family="Arial" font-size="14.00" fill="#000000">updated_at </text>
<text text-anchor="start" x="443.7363" y="-53.9" font-family="Arial" font-size="14.00" fill="#666666">[datetime]</text>
</g>
<!-- tag_site&#45;&gt;site -->
<g id="edge2" class="edge">
<title>tag_site:site_id&#45;&gt;site:id</title>
<path fill="none" stroke="#000000" d="M407.9853,-426.0415C433.4165,-417.2554 411.6528,-370.6285 398,-337 389.6057,-316.3237 371.3943,-321.6763 363,-301 347.3681,-262.4966 321.4444,-207.5 363,-207.5"/>
<polygon fill="#000000" stroke="#000000" points="407.895,-426.0546 397.3496,-423.0473 402.9475,-426.7773 398,-427.5 398,-427.5 398,-427.5 402.9475,-426.7773 398.6504,-431.9527 407.895,-426.0546 407.895,-426.0546"/>
<text text-anchor="start" x="405.335" y="-437.5" font-family="Arial" font-size="10.00" fill="#000000">FOREIGN KEY (site_id) REFERENCES site (id)</text>
</g>
</g>
</svg>
